<svg id="Layer_1" data-name="Layer 1" xmlns="http://www.w3.org/2000/svg" width="579" height="98" viewBox="0 0 579 98"><defs><style>.cls-1{fill:#1f6df3;}</style></defs><path class="cls-1" d="M48.5508.6133,45.67,14.2363H32.7305L15.25,96.4141H1.4316L18.9121,14.2363H5.9727L8.8535.6133Z"/><path class="cls-1" d="M53.4824,11.7461H73.6q15.2344,0,15.2344,12.2559a27.809,27.809,0,0,1-.6348,5.5664L85.5137,42.2637Q83.1209,53.4456,71.5,57.01l7.1289,39.4043H63.4922l-4.541-37.2559-1.8067.2441L49.2832,96.4141H35.4648ZM64.7129,23.7578l-5.127,24.2676H62.76a15.7822,15.7822,0,0,0,4.0039-.3418,6.889,6.889,0,0,0,4.9316-5.42l2.6856-12.6953a9.2842,9.2842,0,0,0,.1953-1.8067q0-4.0034-4.9805-4.0039Z"/><path class="cls-1" d="M131.3633,66.3848,129.459,96.4141H115.4941l1.1231-17.9688H102.5059l-6.543,17.9688H82.0469l10.84-29.9317,21.4356-54.7363h18.9453Zm-13.9649,0,2.1973-35.2539L106.8516,66.3848Z"/><path class="cls-1" d="M179.9473,80.1543q-3.8087,17.7744-23.6817,17.8223-16.6509,0-16.65-12.5489a24.667,24.667,0,0,1,.6348-5.2734l10.9863-51.8066q3.8086-17.773,23.6328-17.7735,16.6994,0,16.6993,12.5a24.6932,24.6932,0,0,1-.6348,5.2735L188.541,39.7246H174.7227l2.3925-11.3769a9.0745,9.0745,0,0,0,.1953-1.7579q0-3.9551-4.98-3.955h-.0977q-5.9575,0-7.1777,5.7129L154.0684,80.1543a9.0435,9.0435,0,0,0-.1954,1.7578q0,3.9551,4.9805,3.9551,6.0541,0,7.2754-5.7129l2.3926-11.377H182.34Z"/><path class="cls-1" d="M241.52,11.7461l-2.5879,12.0117H225.9922l-15.43,72.6563H196.7441l15.43-72.6563H199.2344l2.5879-12.0117Z"/><path class="cls-1" d="M274.4785,80.1543Q270.67,97.9287,250.7969,97.9766q-16.6509,0-16.65-12.5489a24.6664,24.6664,0,0,1,.6347-5.2734l10.9864-51.8066q3.8085-17.773,23.6328-17.7735,16.6992,0,16.6992,12.5a24.6868,24.6868,0,0,1-.6348,5.2735Zm-2.832-51.8066a9.0745,9.0745,0,0,0,.1953-1.7579q0-3.9551-4.98-3.955h-.0976q-5.9575,0-7.1778,5.7129L248.6,80.1543a9.0428,9.0428,0,0,0-.1953,1.7578q0,3.9551,4.9805,3.9551,6.0542,0,7.2754-5.7129Z"/><path class="cls-1" d="M300.748,11.7461h20.1172q15.2344,0,15.2344,12.2559a27.809,27.809,0,0,1-.6348,5.5664l-2.6855,12.6953Q330.3858,53.4456,318.7656,57.01l7.1289,39.4043H310.7578l-4.541-37.2559-1.8066.2441-7.8614,37.0118H282.7305Zm11.2305,12.0117-5.1269,24.2676h3.1738a15.7844,15.7844,0,0,0,4.0039-.3418,6.89,6.89,0,0,0,4.9316-5.42l2.6856-12.6953a9.2765,9.2765,0,0,0,.1953-1.8067q0-4.0034-4.98-4.0039Z"/><path class="cls-1" d="M407.4863,8.9141,373.0137,82.791h19.58l-2.8809,13.6231H354.5566l1.7579-8.3008,34.4726-73.877H372.6719L375.5527.6133h33.6914Z"/><path class="cls-1" d="M442.1543,80.1543q-3.8086,17.7744-23.6816,17.8223-16.6509,0-16.65-12.5489a24.6345,24.6345,0,0,1,.6347-5.2734l10.9864-51.8066q3.8085-17.773,23.6328-17.7735,16.6992,0,16.6992,12.5a24.6868,24.6868,0,0,1-.6348,5.2735Zm-2.832-51.8066a9.0824,9.0824,0,0,0,.1953-1.7579q0-3.9551-4.9805-3.955H434.44q-5.9576,0-7.1778,5.7129L416.2754,80.1543a9.0041,9.0041,0,0,0-.1953,1.7578q0,3.9551,4.98,3.9551,6.0543,0,7.2754-5.7129Z"/><path class="cls-1" d="M492.5938,80.1543q-3.8086,17.7744-23.6817,17.8223-16.6509,0-16.65-12.5489a24.6351,24.6351,0,0,1,.6348-5.2734l10.9863-51.8066q3.8087-17.773,23.6328-17.7735,16.6992,0,16.6992,12.5a24.6927,24.6927,0,0,1-.6347,5.2735Zm-2.8321-51.8066a9.0745,9.0745,0,0,0,.1953-1.7579q0-3.9551-4.98-3.955h-.0977q-5.9576,0-7.1777,5.7129L466.7148,80.1543a9.0118,9.0118,0,0,0-.1953,1.7578q0,3.9551,4.9805,3.9551,6.0541,0,7.2754-5.7129Z"/><path class="cls-1" d="M536.5879,69.7539l28.418-58.0078h13.8183l-18.0176,84.668H547.5742l10.1074-47.51-21.9238,47.51h-9.375l-2.0508-47.51-10.1074,47.51H500.8457l18.0176-84.668h13.8183Z"/></svg>